<?xml version="1.0" encoding="UTF-8"?>
<svg version="1.1" xmlns="http://www.w3.org/2000/svg" width="500" height="500">
<path d="M0 0 C2.82315897 0.01616733 5.64489976 -0.00000907 8.46801758 -0.01904297 C23.36044447 -0.03719765 37.62928698 0.8354956 51.20825195 7.50048828 C53.99956104 8.52862798 54.89030057 8.42173174 57.6262207 7.39111328 C89.84933596 -3.96369876 132.30242469 -3.82233843 164.6262207 7.39111328 C167.08651453 9.85140711 166.84877347 11.19006855 166.85137939 14.54504395 C166.84410828 15.24705933 166.83683716 15.94907471 166.8293457 16.67236328 C166.83990831 18.16976772 166.85166721 19.6671641 166.86450195 21.16455078 C166.87474623 23.51683219 166.87641947 25.86798787 166.85620117 28.22021484 C166.79041938 38.23177841 167.61931826 45.07171191 173.6262207 53.39111328 C175.16341602 56.35170745 176.4889712 59.39298511 177.8137207 62.45361328 C178.14307617 63.19160156 178.47243164 63.92958984 178.81176758 64.68994141 C181.06967826 69.82971822 182.93689058 75.03880367 184.6262207 80.39111328 C187.57336002 76.77459217 189.6568676 72.8161622 191.8137207 68.70361328 C192.20881836 67.95466797 192.60391602 67.20572266 193.01098633 66.43408203 C196.04828816 60.62190126 198.85794673 54.72259398 201.60546875 48.76928711 C204.28935608 42.99690964 207.23750452 37.39465326 210.25756836 31.79248047 C213.37870148 25.96149487 216.22521879 20.02411546 218.97583008 14.01025391 C219.433125 13.01541992 219.433125 13.01541992 219.8996582 12.00048828 C220.16182129 11.42266602 220.42398437 10.84484375 220.6940918 10.24951172 C221.00169434 9.63624023 221.30929687 9.02296875 221.6262207 8.39111328 C222.00846298 7.53949112 222.39070526 6.68786896 222.78453064 5.81044006 C224.6262207 3.39111328 224.6262207 3.39111328 227.49259949 2.7898407 C228.65842056 2.80094376 229.82424164 2.81204681 231.02539062 2.82348633 C231.66956436 2.8227562 232.3137381 2.82202606 232.97743225 2.8212738 C235.10471089 2.82475487 237.22979397 2.86363245 239.35668945 2.90283203 C240.83212589 2.91215851 242.30757782 2.91927541 243.78303528 2.92427063 C247.66489476 2.94335404 251.54581755 2.99246457 255.42730713 3.04779053 C259.38866503 3.09895515 263.35017444 3.1217786 267.31176758 3.14697266 C275.08367882 3.20058359 282.85481848 3.28591058 290.6262207 3.39111328 C290.6262207 7.39111328 290.6262207 7.39111328 289.6262207 10.39111328 C288.9662207 10.39111328 288.3062207 10.39111328 287.6262207 10.39111328 C287.4818457 10.98923828 287.3374707 11.58736328 287.1887207 12.20361328 C286.73897681 13.95261733 286.19729729 15.67788351 285.6262207 17.39111328 C284.9662207 17.39111328 284.3062207 17.39111328 283.6262207 17.39111328 C283.53727539 18.07689453 283.44833008 18.76267578 283.35668945 19.46923828 C282.45705841 23.06776246 280.79927375 25.9729016 278.9387207 29.14111328 C278.1202389 30.56384567 277.30258831 31.98705646 276.4855957 33.41064453 C276.03249023 34.19648926 275.57938477 34.98233398 275.11254883 35.79199219 C272.87434038 39.70591582 270.68715832 43.64792465 268.49389648 47.5871582 C263.38918186 56.75341409 258.21244934 65.86286718 252.84375 74.87695312 C249.85228812 79.9284949 247.11079706 85.06888919 244.6262207 90.39111328 C243.9662207 90.39111328 243.3062207 90.39111328 242.6262207 90.39111328 C242.54758789 91.05755859 242.46895508 91.72400391 242.38793945 92.41064453 C241.37288601 96.38236646 239.4918664 99.5539354 237.4387207 103.07861328 C237.03524414 103.78469727 236.63176758 104.49078125 236.21606445 105.21826172 C233.47592421 109.99387238 230.65289513 114.71539724 227.7199707 119.37548828 C226.09906585 122.36258437 225.32095102 124.31499437 226.27197266 127.66748047 C226.63250732 128.49924805 226.99304199 129.33101562 227.36450195 130.18798828 C227.96911255 131.60833374 227.96911255 131.60833374 228.5859375 133.05737305 C229.03235596 134.07500732 229.47877441 135.0926416 229.9387207 136.14111328 C230.86883978 138.31150129 231.79851457 140.48207975 232.7277832 142.65283203 C233.20892578 143.76706543 233.69006836 144.88129883 234.18579102 146.02929688 C236.0155712 150.29981775 237.78445895 154.59406309 239.55200195 158.890625 C243.03942933 167.35681383 246.64997009 175.71082171 250.5871582 183.97705078 C253.54997476 190.3028968 256.29047508 196.73054802 259.0637207 203.14111328 C259.49054642 204.12741226 259.49054642 204.12741226 259.92599487 205.13363647 C263.65751197 213.76372351 267.33032712 222.41681188 270.94580078 231.09619141 C273.19506387 236.46032672 275.6226998 241.72231296 278.1237793 246.97290039 C280.696963 252.42307708 282.88286593 257.98135631 285.06762695 263.59423828 C286.97212836 268.36234251 289.21827912 272.9746927 291.53051758 277.55712891 C293.73403216 282.0676789 293.73403216 282.0676789 292.6262207 285.39111328 C271.1762207 285.39111328 249.7262207 285.39111328 227.6262207 285.39111328 C220.88246822 271.90360832 220.88246822 271.90360832 219.02856445 267.13720703 C218.61928711 266.09757812 218.21000977 265.05794922 217.78833008 263.98681641 C217.38420898 262.94460938 216.98008789 261.90240234 216.5637207 260.82861328 C213.84866781 253.86726913 211.04597326 246.99281704 207.91455078 240.20776367 C205.52088806 234.97454654 203.26726258 229.68054392 201.0012207 224.39111328 C200.48849609 223.19518555 199.97577148 221.99925781 199.44750977 220.76708984 C194.00799413 208.04268784 188.79636083 195.22711077 183.6262207 182.39111328 C183.0074707 182.88611328 182.3887207 183.38111328 181.7512207 183.89111328 C179.6262207 185.39111328 179.6262207 185.39111328 177.6262207 185.39111328 C176.9662207 186.71111328 176.3062207 188.03111328 175.6262207 189.39111328 C174.9662207 189.39111328 174.3062207 189.39111328 173.6262207 189.39111328 C173.6262207 190.05111328 173.6262207 190.71111328 173.6262207 191.39111328 C171.69262695 193.08251953 171.69262695 193.08251953 169.1887207 194.95361328 C166.29929443 197.04578417 166.29929443 197.04578417 163.6262207 199.39111328 C164.6162207 199.39111328 165.6062207 199.39111328 166.6262207 199.39111328 C166.74195869 210.29142671 166.83085681 221.19159452 166.88528156 232.09239674 C166.91139998 237.15385925 166.94683897 242.2149021 167.00341797 247.27612305 C167.05765772 252.15852176 167.08762432 257.04051629 167.10060692 261.92319298 C167.10986128 263.78801528 167.12793273 265.65281491 167.15487099 267.51746559 C167.19105542 270.12533369 167.19617065 272.73152177 167.19384766 275.33959961 C167.22081223 276.50161392 167.22081223 276.50161392 167.24832153 277.68710327 C167.22749329 279.84138489 167.22749329 279.84138489 166.6262207 283.39111328 C159.83748493 289.01537436 148.10528424 289.15547331 139.6262207 288.39111328 C137.50073284 286.26562542 138.39080805 281.50983987 138.3449707 278.56298828 C138.32656128 277.6630011 138.30815186 276.76301392 138.28918457 275.83575439 C138.23025197 272.93760945 138.17764968 270.03940044 138.1262207 267.14111328 C139.47524563 248.235839 139.47524563 248.235839 135.6262207 231.39111328 C133.45452386 243.32592648 133.22954301 255.10888468 133.0637207 267.20361328 C133.01973047 270.09518986 132.97319811 272.98665867 132.9209137 275.87809753 C132.88902099 277.66309801 132.86211094 279.4481959 132.84068298 281.23335266 C132.73817406 287.27915993 132.73817406 287.27915993 131.6262207 288.39111328 C127.49860691 288.93467783 123.33875391 289.19285233 119.1887207 289.51611328 C118.01760742 289.61537109 116.84649414 289.71462891 115.63989258 289.81689453 C114.52291992 289.90583984 113.40594727 289.99478516 112.25512695 290.08642578 C111.22460205 290.16908691 110.19407715 290.25174805 109.13232422 290.33691406 C106.6262207 290.39111328 106.6262207 290.39111328 104.6262207 289.39111328 C104.2962207 273.22111328 103.9662207 257.05111328 103.6262207 240.39111328 C102.9662207 256.23111328 102.3062207 272.07111328 101.6262207 288.39111328 C96.54878768 289.40659989 93.44583314 288.89022368 88.6262207 287.57861328 C87.57821289 287.31081055 87.57821289 287.31081055 86.5090332 287.03759766 C76.71272693 284.47761951 76.71272693 284.47761951 74.6262207 282.39111328 C73.70655441 277.99715212 73.58857649 273.81365291 73.6262207 269.32861328 C73.66794676 262.86107487 73.50867108 256.41615421 73.2512207 249.95361328 C73.20481445 248.55067017 73.20481445 248.55067017 73.1574707 247.11938477 C73.09670699 238.68913593 73.09670699 238.68913593 69.6262207 231.39111328 C68.42708251 238.02721408 67.51540324 244.49813246 67.45043945 251.25048828 C67.18259018 270.44407534 67.18259018 270.44407534 63.09887695 274.92626953 C59.69280791 277.33322499 56.50996905 278.88167327 52.6262207 280.39111328 C51.40272183 280.96706887 50.18388707 281.55303873 48.9699707 282.14892578 C22.17355808 294.67333603 -16.61501107 293.58087375 -44.3659668 284.52001953 C-57.03394184 279.76541591 -66.07419223 271.53482615 -71.85424805 259.24267578 C-76.21353679 248.47868423 -77.68634209 238.19423545 -77.60424805 226.63330078 C-77.60378983 225.56363068 -77.6033316 224.49396057 -77.6028595 223.39187622 C-77.59986226 221.15495682 -77.59205296 218.91803903 -77.57958984 216.68115234 C-77.56114276 213.24064859 -77.55908181 209.80041171 -77.55932617 206.35986328 C-77.55441719 204.18017343 -77.54859159 202.00048541 -77.54174805 199.82080078 C-77.54063522 198.78865448 -77.5395224 197.75650818 -77.53837585 196.69308472 C-77.531996 195.74764801 -77.52561615 194.8022113 -77.51904297 193.828125 C-77.51523117 192.99304413 -77.51141937 192.15796326 -77.50749207 191.2975769 C-77.3737793 189.39111328 -77.3737793 189.39111328 -76.3737793 188.39111328 C-74.63541639 188.28700895 -72.89283152 188.25257801 -71.15136719 188.24584961 C-70.03673599 188.23946976 -68.9221048 188.2330899 -67.7736969 188.22651672 C-65.95345253 188.22484749 -65.95345253 188.22484749 -64.09643555 188.22314453 C-62.24120522 188.21815193 -62.24120522 188.21815193 -60.34849548 188.21305847 C-57.72647474 188.20798399 -55.10444752 188.20565031 -52.48242188 188.20581055 C-49.78671587 188.20589199 -47.09117911 188.19892671 -44.39550781 188.18530273 C-40.52493031 188.16705982 -36.65455163 188.16207742 -32.78393555 188.16064453 C-31.57246353 188.15345901 -30.36099152 188.1462735 -29.11280823 188.13887024 C-27.99502487 188.14194687 -26.87724152 188.1450235 -25.72558594 188.14819336 C-24.73820938 188.14676834 -23.75083282 188.14534332 -22.73353577 188.14387512 C-20.3737793 188.39111328 -20.3737793 188.39111328 -18.3737793 190.39111328 C-18.13975013 193.25830064 -18.02419044 196.03591417 -17.99487305 198.90673828 C-17.97787857 199.7553241 -17.96088409 200.60390991 -17.94337463 201.47821045 C-17.89014659 204.19910169 -17.84994678 206.91997922 -17.8112793 209.64111328 C-17.76721786 212.34788221 -17.7203177 215.05453818 -17.66847229 217.76116943 C-17.63676955 219.44618271 -17.6098029 221.13129373 -17.58824158 222.81646729 C-17.51343704 227.10794136 -17.2151608 231.16428388 -16.3737793 235.39111328 C-7.12695383 239.42609167 4.74317086 240.24335544 14.5012207 237.32861328 C18.33348169 234.95261147 19.51677378 232.62329102 20.6262207 228.39111328 C20.99684818 224.61035313 20.95502834 220.8736937 20.8762207 217.07861328 C20.86848633 215.60618164 20.86848633 215.60618164 20.8605957 214.10400391 C20.82980272 211.19599173 20.74374467 208.29684352 20.6262207 205.39111328 C20.59334961 204.47281738 20.56047852 203.55452148 20.52661133 202.60839844 C20.47182617 201.73876465 20.41704102 200.86913086 20.3605957 199.97314453 C20.31644531 199.20848877 20.27229492 198.44383301 20.22680664 197.65600586 C18.65794815 191.73962366 13.58326492 188.70579934 8.7199707 185.54736328 C8.04689377 185.10103546 7.37381683 184.65470764 6.68034363 184.19485474 C4.50073172 182.75237776 2.31369014 181.32164013 0.1262207 179.89111328 C-1.37836339 178.89876924 -2.88251212 177.9057648 -4.38623047 176.91210938 C-8.70789495 174.0602371 -13.03907784 171.22312003 -17.3737793 168.39111328 C-18.46770996 167.67600586 -19.56164062 166.96089844 -20.6887207 166.22412109 C-24.88739654 163.48360433 -29.09203453 160.75260487 -33.3034668 158.03173828 C-37.89142612 155.06444401 -42.43384109 152.03248545 -46.96362305 148.97705078 C-48.66602903 147.85682901 -50.41445241 146.80510318 -52.19018555 145.80517578 C-52.91077148 145.33853516 -53.63135742 144.87189453 -54.3737793 144.39111328 C-54.3737793 143.73111328 -54.3737793 143.07111328 -54.3737793 142.39111328 C-55.1162793 142.12298828 -55.8587793 141.85486328 -56.6237793 141.57861328 C-59.26439878 140.43834578 -61.22930774 139.29731022 -63.3737793 137.39111328 C-63.3737793 136.73111328 -63.3737793 136.07111328 -63.3737793 135.39111328 C-64.0337793 135.39111328 -64.6937793 135.39111328 -65.3737793 135.39111328 C-65.3737793 134.73111328 -65.3737793 134.07111328 -65.3737793 133.39111328 C-66.0337793 133.39111328 -66.6937793 133.39111328 -67.3737793 133.39111328 C-67.3737793 132.73111328 -67.3737793 132.07111328 -67.3737793 131.39111328 C-68.0337793 131.39111328 -68.6937793 131.39111328 -69.3737793 131.39111328 C-78.44626818 117.51343266 -77.85087473 102.65006899 -77.76489258 86.64526367 C-77.74886355 83.09726215 -77.76477196 79.55040753 -77.78393555 76.00244141 C-77.80468677 53.86864426 -76.02384968 32.45553187 -60.3737793 15.39111328 C-59.7137793 15.39111328 -59.0537793 15.39111328 -58.3737793 15.39111328 C-58.3737793 14.73111328 -58.3737793 14.07111328 -58.3737793 13.39111328 C-42.40069218 -0.11270433 -19.84528468 -0.13470822 0 0 Z M-15.3737793 53.39111328 C-18.81148864 59.71239157 -18.81533538 66.92780005 -18.6862793 73.95361328 C-18.68950195 74.8346875 -18.69272461 75.71576172 -18.69604492 76.62353516 C-18.62580984 85.27522061 -17.9649397 92.82380804 -11.83862305 99.27392578 C-6.45039608 103.90216511 -0.3950317 107.64644136 5.6262207 111.39111328 C6.56208008 111.98279297 7.49793945 112.57447266 8.4621582 113.18408203 C10.50434662 114.5534848 10.50434662 114.5534848 12.6262207 114.39111328 C12.65200195 113.49134766 12.6777832 112.59158203 12.7043457 111.66455078 C13.30467658 98.04795497 15.45158844 84.61506654 18.8840332 71.41845703 C19.08150146 70.65073975 19.27896973 69.88302246 19.48242188 69.09204102 C19.85784752 67.67059533 20.25256948 66.25404314 20.67041016 64.84448242 C21.65831369 61.15308968 21.67970474 59.52340807 20.22387695 55.92236328 C19.69665039 55.08705078 19.16942383 54.25173828 18.6262207 53.39111328 C17.9662207 53.39111328 17.3062207 53.39111328 16.6262207 53.39111328 C16.6262207 52.73111328 16.6262207 52.07111328 16.6262207 51.39111328 C11.55498643 49.36585998 7.12713928 49.0250881 1.7512207 49.01611328 C0.98680664 48.99162109 0.22239258 48.96712891 -0.56518555 48.94189453 C-6.08286009 48.91379093 -11.15105387 49.57120341 -15.3737793 53.39111328 Z M35.2512207 111.01611328 C30.21221392 118.3808155 30.84914904 127.8372223 31.6262207 136.39111328 C33.34777036 145.42380102 38.17142053 152.50233474 45.65356445 157.83642578 C53.07722551 161.79018195 61.894598 161.62520238 69.8762207 159.54345703 C78.32000147 156.36626912 85.67087818 151.32102602 90.2512207 143.39111328 C92.13071476 138.94152038 92.06615349 136.01405538 90.6262207 131.39111328 C86.56261034 127.43362862 81.30657357 125.13866834 76.1262207 123.01611328 C74.72055955 122.42144222 73.31562883 121.82504209 71.91137695 121.22705078 C71.20255371 120.92637695 70.49373047 120.62570313 69.76342773 120.31591797 C65.13376715 118.31258757 60.58828527 116.12565874 56.02856445 113.96923828 C54.90579102 113.44845703 53.78301758 112.92767578 52.6262207 112.39111328 C52.01883057 112.10937256 51.41144043 111.82763184 50.78564453 111.53735352 C45.45601069 109.14502221 40.46797424 107.4467556 35.2512207 111.01611328 Z M153.0012207 112.45361328 C152.31390869 112.7679834 151.62659668 113.08235352 150.91845703 113.40625 C145.1784747 116.05689349 139.52560973 118.88615397 133.89575195 121.76220703 C129.97135521 123.71737243 125.97553749 125.46244745 121.9309082 127.15283203 C118.26951675 129.12005422 116.03575619 131.18980918 114.6887207 135.14111328 C114.5710363 141.26070211 116.61637861 145.66035845 120.8137207 150.07861328 C129.55810947 158.15887126 137.95312758 160.96066483 149.8605957 160.76220703 C157.25017251 160.0339811 162.40366899 157.00549723 167.5012207 151.70361328 C173.45226493 144.07839822 174.96971861 137.22885495 175.0637207 127.70361328 C175.0790686 126.49161255 175.0790686 126.49161255 175.09472656 125.25512695 C175.01644469 119.9281277 174.18887225 116.08830282 171.6262207 111.39111328 C165.39101323 107.2343083 159.22245947 109.48010647 153.0012207 112.45361328 Z M101.6262207 155.39111328 C96.99660865 160.65935748 94.22670957 168.02361072 91.3137207 174.32861328 C90.63212891 175.73530273 90.63212891 175.73530273 89.93676758 177.17041016 C87.13879515 183.22497004 85.91662717 187.71297597 86.6262207 194.39111328 C88.50046786 196.67183428 88.50046786 196.67183428 91.5012207 196.76611328 C94.64420692 196.6426318 94.64420692 196.6426318 96.8137207 194.82861328 C99.06285056 191.8039214 100.27397472 188.90695284 101.6262207 185.39111328 C102.2862207 185.39111328 102.9462207 185.39111328 103.6262207 185.39111328 C103.96395508 186.01759766 104.30168945 186.64408203 104.6496582 187.28955078 C105.09567383 188.10681641 105.54168945 188.92408203 106.0012207 189.76611328 C106.44208008 190.57822266 106.88293945 191.39033203 107.3371582 192.22705078 C108.57061001 194.4992563 108.57061001 194.4992563 110.6262207 196.39111328 C113.9819553 196.81950493 115.83638936 196.95880456 118.6262207 194.95361328 C120.85487918 189.24267593 117.36045337 182.49009327 115.0949707 177.14892578 C114.11386822 174.93421187 113.12410379 172.7233172 112.1262207 170.51611328 C111.62735352 169.38947266 111.12848633 168.26283203 110.61450195 167.10205078 C107.95136693 161.06782961 107.95136693 161.06782961 104.6262207 155.39111328 C103.6362207 155.39111328 102.6462207 155.39111328 101.6262207 155.39111328 Z " fill="#222222" transform="translate(147.373779296875,94.60888671875)"/>
<path d="M0 0 C0.66 0.33 1.32 0.66 2 1 C1.67 3.64 1.34 6.28 1 9 C-1.97 8.505 -1.97 8.505 -5 8 C-5 7.34 -5 6.68 -5 6 C-6.32 5.67 -7.64 5.34 -9 5 C-2.53398058 1.04854369 -2.53398058 1.04854369 0 0 Z " fill="#434343" transform="translate(311,294)"/>
<path d="M0 0 C0.99 0 1.98 0 3 0 C1.2935381 5.83041148 -0.6690879 11.22406697 -5.625 15 C-6.800625 15.495 -6.800625 15.495 -8 16 C-8.66 15.67 -9.32 15.34 -10 15 C-9.52949219 14.50371094 -9.05898438 14.00742188 -8.57421875 13.49609375 C-4.62393472 9.18594947 -1.95387647 5.51682767 0 0 Z " fill="#595959" transform="translate(320,235)"/>
<path d="M0 0 C2.475 0.99 2.475 0.99 5 2 C5 2.66 5 3.32 5 4 C5.66 4 6.32 4 7 4 C7.33 5.65 7.66 7.3 8 9 C7.34 9 6.68 9 6 9 C5.34 10.32 4.68 11.64 4 13 C2.68 8.71 1.36 4.42 0 0 Z " fill="#484848" transform="translate(263,274)"/>
<path d="M0 0 C0.33 0 0.66 0 1 0 C1 8.91 1 17.82 1 27 C-0.65 27.33 -2.3 27.66 -4 28 C-4 27.34 -4 26.68 -4 26 C-3.01 26 -2.02 26 -1 26 C-0.67 17.42 -0.34 8.84 0 0 Z " fill="#414141" transform="translate(248,356)"/>
<path d="M0 0 C2.97 0.495 2.97 0.495 6 1 C2.8 7.64615385 2.8 7.64615385 -1.25 9.4375 C-2.61125 9.7159375 -2.61125 9.7159375 -4 10 C-2.8905928 6.51329166 -1.73662334 3.22515763 0 0 Z " fill="#424242" transform="translate(371,99)"/>
<path d="M0 0 C1.32 0 2.64 0 4 0 C2.66511872 3.59391114 1.03977277 6.75490696 -1 10 C-1.66 9.34 -2.32 8.68 -3 8 C-2.54545455 2.54545455 -2.54545455 2.54545455 0 0 Z " fill="#494949" transform="translate(379,199)"/>
<path d="M0 0 C1.32 1.65 2.64 3.3 4 5 C3.34 5 2.68 5 2 5 C2.33 5.99 2.66 6.98 3 8 C2.34 8 1.68 8 1 8 C0.67 8.66 0.34 9.32 0 10 C0 9.34 0 8.68 0 8 C-0.99 8 -1.98 8 -3 8 C-2.690625 7.236875 -2.38125 6.47375 -2.0625 5.6875 C-1.32106407 3.81210323 -0.63771783 1.91315348 0 0 Z " fill="#353535" transform="translate(254,286)"/>
<path d="M0 0 C2.0625 2.1875 2.0625 2.1875 4 5 C3.83083157 8.55253709 3.00047767 9.9992835 1 13 C-1.43273978 9.1637565 -2.14061021 7.67060255 -1.1875 3.125 C-0.795625 2.09375 -0.40375 1.0625 0 0 Z " fill="#454344" transform="translate(261,260)"/>
<path d="M0 0 C0.33 0.99 0.66 1.98 1 3 C1.66 3.33 2.32 3.66 3 4 C2.67 4.99 2.34 5.98 2 7 C-1.96 7 -5.92 7 -10 7 C-10 6.67 -10 6.34 -10 6 C-7.36 5.67 -4.72 5.34 -2 5 C-1.855625 4.360625 -1.71125 3.72125 -1.5625 3.0625 C-1 1 -1 1 0 0 Z " fill="#191919" transform="translate(154,136)"/>
<path d="M0 0 C0.66 0.33 1.32 0.66 2 1 C1.54625 1.7425 1.0925 2.485 0.625 3.25 C-0.68640796 5.46930578 -1.88280803 7.67967822 -3 10 C-4.32 10 -5.64 10 -7 10 C-5.63055898 7.05043472 -4.12169591 4.47531189 -2 2 C-1.34 2 -0.68 2 0 2 C0 1.34 0 0.68 0 0 Z " fill="#525252" transform="translate(89,108)"/>
<path d="M0 0 C2.31 0 4.62 0 7 0 C6.34 1.98 5.68 3.96 5 6 C4.34 6 3.68 6 3 6 C2.67 6.99 2.34 7.98 2 9 C2 8.34 2 7.68 2 7 C1.34 6.67 0.68 6.34 0 6 C0.66 6 1.32 6 2 6 C2.33 4.35 2.66 2.7 3 1 C2.01 1.33 1.02 1.66 0 2 C0 1.34 0 0.68 0 0 Z " fill="#3D3D3D" transform="translate(432,99)"/>
<path d="M0 0 C0.99 0.33 1.98 0.66 3 1 C1.92598892 3.91517292 1.22189824 5.77810176 -1 8 C-1.99 7.01 -2.98 6.02 -4 5 C-3.67 4.01 -3.34 3.02 -3 2 C-2.01 2 -1.02 2 0 2 C0 1.34 0 0.68 0 0 Z " fill="#434343" transform="translate(421,125)"/>
<path d="M0 0 C0.99 0 1.98 0 3 0 C3.93423645 3.01031744 4.04449911 3.86650268 3 7 C3.66 7 4.32 7 5 7 C5 8.65 5 10.3 5 12 C1.94063363 8.24532309 0 4.91886939 0 0 Z " fill="#606060" transform="translate(361,346)"/>
<path d="M0 0 C0.6875 1.625 0.6875 1.625 1 4 C-0.4375 7.25 -0.4375 7.25 -2 10 C-3.34771696 7.78023089 -4.04398726 6.49852224 -3.8125 3.875 C-3 2 -3 2 0 0 Z " fill="#3B3B3B" transform="translate(240,263)"/>
<path d="M0 0 C0.99 0.66 1.98 1.32 3 2 C2.34 3.65 1.68 5.3 1 7 C-1.475 6.01 -1.475 6.01 -4 5 C-3.01 4.67 -2.02 4.34 -1 4 C-0.26676204 1.98491642 -0.26676204 1.98491642 0 0 Z " fill="#353535" transform="translate(149,268)"/>
<path d="M0 0 C1.98 1.32 3.96 2.64 6 4 C5.01 4.33 4.02 4.66 3 5 C3 4.34 3 3.68 3 3 C2.01 3.99 1.02 4.98 0 6 C-0.99 5.67 -1.98 5.34 -3 5 C-2.01 3.35 -1.02 1.7 0 0 Z " fill="#434343" transform="translate(136,194)"/>
<path d="M0 0 C1.67542976 0.28604898 3.34385343 0.61781233 5 1 C4.67 1.66 4.34 2.32 4 3 C3.34 3 2.68 3 2 3 C1.67 3.66 1.34 4.32 1 5 C1.66 5.33 2.32 5.66 3 6 C2.01 6 1.02 6 0 6 C-0.38218767 4.34385343 -0.71395102 2.67542976 -1 1 C-0.67 0.67 -0.34 0.34 0 0 Z " fill="#4D4D4D" transform="translate(352,322)"/>
<path d="M0 0 C0 1.32 0 2.64 0 4 C-3.63 3.34 -7.26 2.68 -11 2 C-11 1.67 -11 1.34 -11 1 C-7.27569643 0.30710631 -3.78916254 -0.11144596 0 0 Z " fill="#5F5F5F" transform="translate(197,202)"/>
<path d="M0 0 C0.99 0.33 1.98 0.66 3 1 C2.67 2.32 2.34 3.64 2 5 C1.34 5 0.68 5 0 5 C-0.33 5.99 -0.66 6.98 -1 8 C-1.33 6.35 -1.66 4.7 -2 3 C-1.34 3 -0.68 3 0 3 C0 2.01 0 1.02 0 0 Z " fill="#3C3C3C" transform="translate(357,329)"/>
<path d="M0 0 C2.31 0 4.62 0 7 0 C7.33 0.99 7.66 1.98 8 3 C4.25 4.125 4.25 4.125 2 3 C2 2.34 2 1.68 2 1 C1.34 0.67 0.68 0.34 0 0 Z " fill="#272627" transform="translate(308,251)"/>
<path d="M0 0 C0.33 0.66 0.66 1.32 1 2 C4.465 1.505 4.465 1.505 8 1 C5.06171403 3.50298434 2.82097239 4.46930939 -1 5 C-0.67 3.35 -0.34 1.7 0 0 Z " fill="#5B5B5B" transform="translate(298,204)"/>
<path d="M0 0 C2.6855594 2.6855594 3.06049974 5.37621328 4 9 C3.01 8.67 2.02 8.34 1 8 C-0.25 5.0625 -0.25 5.0625 -1 2 C-0.67 1.34 -0.34 0.68 0 0 Z " fill="#646464" transform="translate(325,159)"/>
<path d="M0 0 C0.99 0 1.98 0 3 0 C2.39816251 2.02045442 1.72693904 4.02111039 1 6 C0.01 6.495 0.01 6.495 -1 7 C-0.67 4.69 -0.34 2.38 0 0 Z " fill="#444243" transform="translate(320,235)"/>
<path d="M0 0 C0.33 0.99 0.66 1.98 1 3 C0.01 3.99 -0.98 4.98 -2 6 C-2 5.01 -2 4.02 -2 3 C-3.32 3.33 -4.64 3.66 -6 4 C-2.25 0 -2.25 0 0 0 Z " fill="#3E3E3E" transform="translate(97,104)"/>
</svg>
